<mxfile host="app.diagrams.net" agent="Mozilla/5.0 (Windows NT 10.0; Win64; x64) AppleWebKit/537.36 (KHTML, like Gecko) Chrome/134.0.0.0 Safari/537.36 OPR/119.0.0.0" version="27.2.0">
  <diagram name="Page-1" id="d6qYGceQ8HaK7JHf0wws">
    <mxGraphModel dx="921" dy="1675" grid="1" gridSize="10" guides="1" tooltips="1" connect="1" arrows="1" fold="1" page="1" pageScale="1" pageWidth="850" pageHeight="1100" math="0" shadow="0">
      <root>
        <mxCell id="0" />
        <mxCell id="1" parent="0" />
        <mxCell id="JgsHzTE1zox5hYZW8kB_-8" style="edgeStyle=orthogonalEdgeStyle;rounded=0;orthogonalLoop=1;jettySize=auto;html=1;exitX=1;exitY=0.5;exitDx=0;exitDy=0;entryX=0;entryY=0.5;entryDx=0;entryDy=0;" parent="1" source="JgsHzTE1zox5hYZW8kB_-1" target="JgsHzTE1zox5hYZW8kB_-4" edge="1">
          <mxGeometry relative="1" as="geometry" />
        </mxCell>
        <mxCell id="JgsHzTE1zox5hYZW8kB_-1" value="&lt;font size=&quot;3&quot; face=&quot;Times New Roman&quot;&gt;Калібрування камер&lt;/font&gt;" style="rounded=0;whiteSpace=wrap;html=1;" parent="1" vertex="1">
          <mxGeometry x="40" y="200" width="160" height="80" as="geometry" />
        </mxCell>
        <mxCell id="JgsHzTE1zox5hYZW8kB_-9" style="edgeStyle=orthogonalEdgeStyle;rounded=0;orthogonalLoop=1;jettySize=auto;html=1;exitX=1;exitY=0.5;exitDx=0;exitDy=0;entryX=0;entryY=0.5;entryDx=0;entryDy=0;" parent="1" source="JgsHzTE1zox5hYZW8kB_-4" target="JgsHzTE1zox5hYZW8kB_-5" edge="1">
          <mxGeometry relative="1" as="geometry" />
        </mxCell>
        <mxCell id="JgsHzTE1zox5hYZW8kB_-4" value="&lt;font size=&quot;3&quot; face=&quot;Times New Roman&quot;&gt;Отримання просторових векторів&lt;/font&gt;" style="rounded=0;whiteSpace=wrap;html=1;" parent="1" vertex="1">
          <mxGeometry x="240" y="200" width="160" height="80" as="geometry" />
        </mxCell>
        <mxCell id="JgsHzTE1zox5hYZW8kB_-10" style="edgeStyle=orthogonalEdgeStyle;rounded=0;orthogonalLoop=1;jettySize=auto;html=1;exitX=1;exitY=0.5;exitDx=0;exitDy=0;entryX=0;entryY=0.5;entryDx=0;entryDy=0;" parent="1" source="JgsHzTE1zox5hYZW8kB_-5" target="JgsHzTE1zox5hYZW8kB_-6" edge="1">
          <mxGeometry relative="1" as="geometry" />
        </mxCell>
        <mxCell id="JgsHzTE1zox5hYZW8kB_-5" value="&lt;font size=&quot;3&quot; face=&quot;Times New Roman&quot;&gt;Зведення отриманих від декількох камер векторів в єдиний координатний простір&amp;nbsp;&lt;/font&gt;" style="rounded=0;whiteSpace=wrap;html=1;" parent="1" vertex="1">
          <mxGeometry x="440" y="200" width="160" height="80" as="geometry" />
        </mxCell>
        <mxCell id="JgsHzTE1zox5hYZW8kB_-11" style="edgeStyle=orthogonalEdgeStyle;rounded=0;orthogonalLoop=1;jettySize=auto;html=1;exitX=1;exitY=0.5;exitDx=0;exitDy=0;entryX=0;entryY=0.5;entryDx=0;entryDy=0;" parent="1" source="JgsHzTE1zox5hYZW8kB_-6" target="JgsHzTE1zox5hYZW8kB_-7" edge="1">
          <mxGeometry relative="1" as="geometry" />
        </mxCell>
        <mxCell id="JgsHzTE1zox5hYZW8kB_-6" value="&lt;font size=&quot;3&quot; face=&quot;Times New Roman&quot;&gt;Побудова очікування позиції&lt;/font&gt;" style="rounded=0;whiteSpace=wrap;html=1;" parent="1" vertex="1">
          <mxGeometry x="640" y="200" width="160" height="80" as="geometry" />
        </mxCell>
        <mxCell id="JgsHzTE1zox5hYZW8kB_-7" value="&lt;font size=&quot;3&quot; face=&quot;Times New Roman&quot;&gt;Заведення даних про позицію в БПЛА&lt;/font&gt;" style="rounded=0;whiteSpace=wrap;html=1;" parent="1" vertex="1">
          <mxGeometry x="850" y="200" width="160" height="80" as="geometry" />
        </mxCell>
        <mxCell id="3kCFfUJmlrW4j-A-8AX5-3" value="Зараз виконуєш&lt;br&gt;Відео-туторіал з поясненнями:&lt;br&gt;https://www.youtube.com/watch?v=qByYk6JggQU&amp;amp;list=PL2zRqk16wsdoCCLpou-dGo7QQNks1Ppzo&amp;amp;index=2&lt;br&gt;&lt;br&gt;Пояснення процессу калібрування від OpenCV:&lt;br&gt;https://docs.opencv.org/4.x/dc/dbb/tutorial_py_calibration.html&lt;br&gt;&lt;br&gt;Процес калібрування в Матлабі:&lt;br&gt;https://www.mathworks.com/help/vision/ref/cameracalibrator-app.html&lt;br&gt;&lt;br&gt;Переведення результатів матлабу&lt;br&gt;в придатні для OpenCV результати:&lt;br&gt;https://www.mathworks.com/help/vision/ref/cameraintrinsicstoopencv.html&lt;div&gt;&lt;br style=&quot;text-wrap-mode: nowrap;&quot;&gt;&lt;/div&gt;" style="rounded=0;whiteSpace=wrap;html=1;dashed=1;dashPattern=1 4;align=left;" vertex="1" parent="1">
          <mxGeometry x="10" y="-60" width="400" height="240" as="geometry" />
        </mxCell>
        <mxCell id="3kCFfUJmlrW4j-A-8AX5-4" value="&lt;div&gt;&lt;span style=&quot;text-wrap-mode: nowrap;&quot;&gt;Математика:&lt;/span&gt;&lt;br style=&quot;text-wrap-mode: nowrap;&quot;&gt;&lt;span style=&quot;text-wrap-mode: nowrap;&quot;&gt;https://www.youtube.com/watch?v=hUVyDabn1Mg&amp;amp;list=PL2zRqk16wsdoCCLpou-dGo7QQNks1Ppzo&amp;amp;index=5&lt;/span&gt;&lt;br style=&quot;text-wrap-mode: nowrap;&quot;&gt;&lt;span style=&quot;text-wrap-mode: nowrap;&quot;&gt;(Дивитись на 0:56)&lt;/span&gt;&lt;/div&gt;" style="rounded=0;whiteSpace=wrap;html=1;dashed=1;dashPattern=1 4;align=left;horizontal=0;rotation=-180;" vertex="1" parent="1">
          <mxGeometry x="250" y="290" width="140" height="600" as="geometry" />
        </mxCell>
        <mxCell id="3kCFfUJmlrW4j-A-8AX5-5" value="&lt;div&gt;Тут необхідно буде врахувати де розташовані камери та як орієнтовані.&lt;br&gt;Для цього почитати можна матеріал про матриці та для чого вони використовуються:&lt;br&gt;https://www.youtube.com/watch?v=kYB8IZa5AuE&amp;amp;list=PLZHQObOWTQDPD3MizzM2xVFitgF8hE_ab&amp;amp;index=3&lt;br&gt;Це відео з плейлісту, можуть бути цікавими 3, 4, 5, 8, 9, 10, 11&lt;br&gt;http://mathprofi.ru/linejnye_preobrazovanija.html - це мены просто допомагало з математикою впродовж вивчення, заходити з ВПН&lt;br&gt;Наступні відео можуть допомогти якщо використовувала колись тривимірну графіку OpenGL в її перших наближенях:&lt;br&gt;https://www.youtube.com/watch?v=86_pQCKOIPk&amp;amp;list=PLPaoO-vpZnumdcb4tZc4x5Q-v7CkrQ6M-&amp;amp;index=9 - тут на 2:17 наведено шейдер в якому відбуваються перетворення за допомогою матриць&lt;br&gt;&lt;br&gt;&lt;br&gt;Та про те як їх отримати за допомоою кутів Ейлера(простий варіант, має недоліки):&lt;br&gt;https://eecs.qmul.ac.uk/~gslabaugh/publications/euler.pdf&lt;br&gt;&lt;br&gt;Та кватерніонів (які хтозна хто вивчає в період бакалавріату):&lt;br&gt;https://eater.net/quaternions - інтерактивний урок&lt;br&gt;&lt;div&gt;&lt;br style=&quot;text-wrap-mode: nowrap;&quot;&gt;&lt;/div&gt;&lt;/div&gt;" style="rounded=0;whiteSpace=wrap;html=1;dashed=1;dashPattern=1 4;align=left;" vertex="1" parent="1">
          <mxGeometry x="440" y="-120" width="400" height="300" as="geometry" />
        </mxCell>
        <mxCell id="3kCFfUJmlrW4j-A-8AX5-9" value="&lt;div&gt;&lt;div&gt;&lt;span style=&quot;text-align: center; text-wrap-mode: nowrap;&quot;&gt;тут ніби все просто і навіть є відео з розв&#39;язанням цієї проблеми:&lt;br&gt;https://www.youtube.com/watch?v=HC5YikQxwZA&lt;br&gt;проте починається творча частина де доведеться з&#39;ясувати&amp;nbsp;&lt;/span&gt;&lt;/div&gt;&lt;div&gt;&lt;span style=&quot;text-align: center; text-wrap-mode: nowrap;&quot;&gt;як це застосувати для 4х ліній для підвищення точності очікування позиції&lt;/span&gt;&lt;/div&gt;&lt;/div&gt;" style="rounded=0;whiteSpace=wrap;html=1;dashed=1;dashPattern=1 4;align=left;" vertex="1" parent="1">
          <mxGeometry x="640" y="290" width="430" height="100" as="geometry" />
        </mxCell>
        <mxCell id="3kCFfUJmlrW4j-A-8AX5-10" value="&lt;div&gt;&lt;div style=&quot;&quot;&gt;&lt;span style=&quot;text-wrap-mode: nowrap;&quot;&gt;Тут вже ніби дійсно все просто:&lt;/span&gt;&lt;br&gt;&lt;span style=&quot;text-wrap-mode: nowrap;&quot;&gt;https://ardupilot.org/mavproxy/docs/modules/GPSInput.html&lt;br&gt;розробники самі розказують як це зробити,&amp;nbsp;&lt;/span&gt;&lt;/div&gt;&lt;div style=&quot;&quot;&gt;&lt;span style=&quot;text-wrap-mode: nowrap;&quot;&gt;єдине що&amp;nbsp;&lt;/span&gt;&lt;/div&gt;&lt;div style=&quot;&quot;&gt;&lt;span style=&quot;text-wrap-mode: nowrap;&quot;&gt;-варто буде прив&#39;язати це або до фіксованих координат в яких&amp;nbsp;&lt;/span&gt;&lt;/div&gt;&lt;div style=&quot;&quot;&gt;&lt;span style=&quot;text-wrap-mode: nowrap;&quot;&gt;будемо здійснювати рух(наприклад будь-яка гра буде проходити з точкою верхнього лівого кута дошки на Шарі на поляні)&lt;br&gt;-або використати єдиний GPS в системі який буде під&#39;єднуватись до головного комп&#39;ютера для одноразового отримання інформації про місце гри&lt;/span&gt;&lt;/div&gt;&lt;/div&gt;" style="rounded=0;whiteSpace=wrap;html=1;dashed=1;dashPattern=1 4;align=left;" vertex="1" parent="1">
          <mxGeometry x="850" y="-120" width="430" height="300" as="geometry" />
        </mxCell>
        <mxCell id="3kCFfUJmlrW4j-A-8AX5-12" value="" style="shape=parallelogram;perimeter=parallelogramPerimeter;whiteSpace=wrap;html=1;fixedSize=1;size=140;" vertex="1" parent="1">
          <mxGeometry x="600" y="660" width="470" height="150" as="geometry" />
        </mxCell>
        <mxCell id="3kCFfUJmlrW4j-A-8AX5-13" value="" style="ellipse;whiteSpace=wrap;html=1;" vertex="1" parent="1">
          <mxGeometry x="570" y="570" width="60" height="40" as="geometry" />
        </mxCell>
        <mxCell id="3kCFfUJmlrW4j-A-8AX5-14" value="" style="shape=parallelogram;perimeter=parallelogramPerimeter;whiteSpace=wrap;html=1;fixedSize=1;size=70;" vertex="1" parent="1">
          <mxGeometry x="510" y="690" width="200" height="80" as="geometry" />
        </mxCell>
        <mxCell id="3kCFfUJmlrW4j-A-8AX5-15" value="" style="shape=parallelogram;perimeter=parallelogramPerimeter;whiteSpace=wrap;html=1;fixedSize=1;size=70;" vertex="1" parent="1">
          <mxGeometry x="965" y="695" width="200" height="80" as="geometry" />
        </mxCell>
        <mxCell id="3kCFfUJmlrW4j-A-8AX5-16" value="" style="ellipse;whiteSpace=wrap;html=1;" vertex="1" parent="1">
          <mxGeometry x="1160" y="570" width="60" height="40" as="geometry" />
        </mxCell>
        <mxCell id="3kCFfUJmlrW4j-A-8AX5-17" value="" style="ellipse;whiteSpace=wrap;html=1;" vertex="1" parent="1">
          <mxGeometry x="420" y="800" width="60" height="40" as="geometry" />
        </mxCell>
        <mxCell id="3kCFfUJmlrW4j-A-8AX5-18" value="" style="ellipse;whiteSpace=wrap;html=1;" vertex="1" parent="1">
          <mxGeometry x="1120" y="810" width="60" height="40" as="geometry" />
        </mxCell>
        <mxCell id="3kCFfUJmlrW4j-A-8AX5-19" value="" style="ellipse;whiteSpace=wrap;html=1;aspect=fixed;" vertex="1" parent="1">
          <mxGeometry x="820" y="620" width="40" height="40" as="geometry" />
        </mxCell>
        <mxCell id="3kCFfUJmlrW4j-A-8AX5-20" value="" style="endArrow=none;html=1;rounded=0;" edge="1" parent="1">
          <mxGeometry width="50" height="50" relative="1" as="geometry">
            <mxPoint x="840" y="610" as="sourcePoint" />
            <mxPoint x="600.0046566399495" y="590.0033306947236" as="targetPoint" />
          </mxGeometry>
        </mxCell>
        <mxCell id="3kCFfUJmlrW4j-A-8AX5-21" value="" style="endArrow=none;html=1;rounded=0;" edge="1" parent="1">
          <mxGeometry width="50" height="50" relative="1" as="geometry">
            <mxPoint x="1190" y="590" as="sourcePoint" />
            <mxPoint x="760" y="650" as="targetPoint" />
          </mxGeometry>
        </mxCell>
        <mxCell id="3kCFfUJmlrW4j-A-8AX5-22" value="" style="endArrow=none;html=1;rounded=0;" edge="1" parent="1">
          <mxGeometry width="50" height="50" relative="1" as="geometry">
            <mxPoint x="450" y="820" as="sourcePoint" />
            <mxPoint x="970" y="580" as="targetPoint" />
          </mxGeometry>
        </mxCell>
        <mxCell id="3kCFfUJmlrW4j-A-8AX5-23" value="" style="endArrow=none;html=1;rounded=0;" edge="1" parent="1">
          <mxGeometry width="50" height="50" relative="1" as="geometry">
            <mxPoint x="800" y="640" as="sourcePoint" />
            <mxPoint x="1150" y="831.5999755859375" as="targetPoint" />
          </mxGeometry>
        </mxCell>
        <mxCell id="3kCFfUJmlrW4j-A-8AX5-25" value="&lt;font style=&quot;font-size: 16px;&quot;&gt;Як виглядає те, про що нам варто думати :)&lt;/font&gt;" style="text;html=1;align=center;verticalAlign=middle;resizable=0;points=[];autosize=1;strokeColor=none;fillColor=none;" vertex="1" parent="1">
          <mxGeometry x="700" y="480" width="350" height="30" as="geometry" />
        </mxCell>
        <mxCell id="3kCFfUJmlrW4j-A-8AX5-26" value="Це камера" style="text;html=1;align=center;verticalAlign=middle;whiteSpace=wrap;rounded=0;" vertex="1" parent="1">
          <mxGeometry x="530" y="510" width="110" height="30" as="geometry" />
        </mxCell>
        <mxCell id="3kCFfUJmlrW4j-A-8AX5-27" value="Це посадочне місце одного дрона" style="text;html=1;align=center;verticalAlign=middle;whiteSpace=wrap;rounded=0;" vertex="1" parent="1">
          <mxGeometry x="410" y="680" width="125" height="30" as="geometry" />
        </mxCell>
        <mxCell id="3kCFfUJmlrW4j-A-8AX5-28" value="А це - іншого" style="text;html=1;align=center;verticalAlign=middle;whiteSpace=wrap;rounded=0;" vertex="1" parent="1">
          <mxGeometry x="1165" y="695" width="125" height="30" as="geometry" />
        </mxCell>
        <mxCell id="3kCFfUJmlrW4j-A-8AX5-29" value="Дошка" style="text;html=1;align=center;verticalAlign=middle;whiteSpace=wrap;rounded=0;" vertex="1" parent="1">
          <mxGeometry x="725" y="815" width="125" height="30" as="geometry" />
        </mxCell>
        <mxCell id="3kCFfUJmlrW4j-A-8AX5-30" value="Ці лінії - це те як камера буде вказувати на виявленого дрона, як воня його виявить - це вже трошки інше питання" style="text;html=1;align=center;verticalAlign=middle;whiteSpace=wrap;rounded=0;" vertex="1" parent="1">
          <mxGeometry x="681.88" y="550" width="316.25" height="40" as="geometry" />
        </mxCell>
      </root>
    </mxGraphModel>
  </diagram>
</mxfile>
